# xmcd
#
# Track frame offsets: 
#        150
#        22575
#        47295
#        51995
#        74912
#        93667
#        116537
#        119855
#        142165
#        147177
#        166675
#        174517
#        195082
#        214952
#        236252
#        241967
#
# Disc length: 3595 seconds
#
# Revision: 0
# Processed by: cddbd v1.5.2PL0 Copyright (c) Steve Scherf et al.
# Submitted via: ExactAudioCopy v0.99pb3
#
DISCID=e20e0910
DTITLE=Maysa - Out Of The Blue
DYEAR=2002
DGENRE=R&B
TTITLE0=Friendly Pressure
TTITLE1=Out Of The Blue
TTITLE2=Spirit (Interlude)
TTITLE3=Head To The Sky
TTITLE4=Simple Life
TTITLE5=Right Here Right Now
TTITLE6=MSDF (Interlude)
TTITLE7=Mr. So Damn Fine
TTITLE8=I Want You (Interlude)
TTITLE9=Blue Horizon
TTITLE10=Osaka
TTITLE11=Everything
TTITLE12=Tailor Made Love
TTITLE13=If It's Love
TTITLE14=Thank You (Interlude)
TTITLE15=Family Affair
EXTD=
EXTT0=
EXTT1=
EXTT2=
EXTT3=
EXTT4=
EXTT5=
EXTT6=
EXTT7=
EXTT8=
EXTT9=
EXTT10=
EXTT11=
EXTT12=
EXTT13=
EXTT14=
EXTT15=
PLAYORDER=
